<svg xmlns="http://www.w3.org/2000/svg" xmlns:xlink="http://www.w3.org/1999/xlink" width="575" version="1.1" height="235" viewBox="-5 -5 585 245"><path transform="matrix(1,0,0,1,250,100)" fill="#f9f7ed" stroke="#cccccc" d="M0,10Q0,0,10,0L105,0Q115,0,115,10L115,20Q115,20,115,20L0,20Q0,20,0,20Z" stroke-width="3"></path><path transform="matrix(1,0,0,1,250,120)" fill="#f9f7ed" stroke="#cccccc" d="M0,0Q0,0,0,0L115,0Q115,0,115,0L115,95Q115,105,105,105L10,105Q0,105,0,95Z" stroke-width="3"></path><text transform="matrix(1,0,0,1,0,0)" style="text-anchor: middle; font: normal normal 700 12px/normal Arial;" x="307.5" y="110" text-anchor="middle" font="10px &quot;Arial&quot;" stroke="none" fill="#000000" font-size="12px" font-weight="700" stroke-width="0"><tspan dy="4.361538461538462"></tspan></text><text transform="matrix(1,0,0,1,0,0)" style="text-anchor: middle; font: normal normal 200 12px/normal Arial;" x="307.5" y="166.5" text-anchor="middle" font="10px &quot;Arial&quot;" stroke="none" fill="#000000" font-size="12px" font-weight="200" stroke-width="0"><tspan dy="4.361538461538462">AC_ProtectedCall</tspan></text><text transform="matrix(1,0,0,1,0,0)" style="text-anchor: middle; font: italic normal normal 12px/normal Arial;" x="307.5" y="199" text-anchor="middle" font="10px &quot;Arial&quot;" stroke="none" fill="#9E9E9E" font-size="12px" font-weight="normal" font-style="italic" stroke-width="1"><tspan dy="4.361538461538462"></tspan></text><text transform="matrix(1,0,0,1,0,0)" style="text-anchor: middle; font: normal normal 700 12px/normal Arial;" x="307.5" y="235" text-anchor="middle" font="10px &quot;Arial&quot;" stroke="none" fill="#000000" font-size="12px" font-weight="700" stroke-width="0"><tspan dy="4.361538461538462"></tspan></text><path transform="matrix(1,0,0,1,50,100)" fill="#f9f7ed" stroke="#d9d9d9" d="M0,10Q0,0,10,0L105,0Q115,0,115,10L115,20Q115,20,115,20L0,20Q0,20,0,20Z" stroke-width="3"></path><path transform="matrix(1,0,0,1,50,120)" fill="#f9f7ed" stroke="#d9d9d9" d="M0,0Q0,0,0,0L115,0Q115,0,115,0L115,95Q115,105,105,105L10,105Q0,105,0,95Z" stroke-width="3"></path><text transform="matrix(1,0,0,1,0,0)" style="text-anchor: middle; font: normal normal 700 12px/normal Arial;" x="107.5" y="110" text-anchor="middle" font="10px &quot;Arial&quot;" stroke="none" fill="#000000" font-size="12px" font-weight="700" stroke-width="0"><tspan dy="4.361538461538462"></tspan></text><text transform="matrix(1,0,0,1,0,0)" style="text-anchor: middle; font: normal normal 200 12px/normal Arial;" x="107.5" y="166.5" text-anchor="middle" font="10px &quot;Arial&quot;" stroke="none" fill="#000000" font-size="12px" font-weight="200" stroke-width="0"><tspan dy="4.361538461538462">AC_GrantRole</tspan></text><text transform="matrix(1,0,0,1,0,0)" style="text-anchor: middle; font: italic normal normal 12px/normal Arial;" x="107.5" y="199" text-anchor="middle" font="10px &quot;Arial&quot;" stroke="none" fill="#9E9E9E" font-size="12px" font-weight="normal" font-style="italic" stroke-width="1"><tspan dy="4.361538461538462"></tspan></text><text transform="matrix(1,0,0,1,0,0)" style="text-anchor: middle; font: normal normal 700 12px/normal Arial;" x="107.5" y="235" text-anchor="middle" font="10px &quot;Arial&quot;" stroke="none" fill="#000000" font-size="12px" font-weight="700" stroke-width="0"><tspan dy="4.361538461538462"></tspan></text><path transform="matrix(1,0,0,1,450,100)" fill="#f9f7ed" stroke="#cccccc" d="M0,10Q0,0,10,0L105,0Q115,0,115,10L115,20Q115,20,115,20L0,20Q0,20,0,20Z" stroke-width="3"></path><path transform="matrix(1,0,0,1,450,120)" fill="#f9f7ed" stroke="#cccccc" d="M0,0Q0,0,0,0L115,0Q115,0,115,0L115,95Q115,105,105,105L10,105Q0,105,0,95Z" stroke-width="3"></path><text transform="matrix(1,0,0,1,0,0)" style="text-anchor: middle; font: normal normal 700 12px/normal Arial;" x="507.5" y="110" text-anchor="middle" font="10px &quot;Arial&quot;" stroke="none" fill="#000000" font-size="12px" font-weight="700" stroke-width="0"><tspan dy="4.361538461538462"></tspan></text><text transform="matrix(1,0,0,1,0,0)" style="text-anchor: middle; font: normal normal 200 12px/normal Arial;" x="507.5" y="166.5" text-anchor="middle" font="10px &quot;Arial&quot;" stroke="none" fill="#000000" font-size="12px" font-weight="200" stroke-width="0"><tspan dy="4.361538461538462">AC_RevokeRole</tspan></text><text transform="matrix(1,0,0,1,0,0)" style="text-anchor: middle; font: italic normal normal 12px/normal Arial;" x="507.5" y="199" text-anchor="middle" font="10px &quot;Arial&quot;" stroke="none" fill="#9E9E9E" font-size="12px" font-weight="normal" font-style="italic" stroke-width="1"><tspan dy="4.361538461538462"></tspan></text><text transform="matrix(1,0,0,1,0,0)" style="text-anchor: middle; font: normal normal 700 12px/normal Arial;" x="507.5" y="235" text-anchor="middle" font="10px &quot;Arial&quot;" stroke="none" fill="#000000" font-size="12px" font-weight="700" stroke-width="0"><tspan dy="4.361538461538462"></tspan></text><path transform="matrix(1,0,0,1,0,0)" fill="none" stroke="#FFA500" d="M166,156L249,156" stroke-width="2.2" arrow-end="none" arrow-start="none"></path><circle transform="matrix(1,0,0,1,0,0)" cx="245" cy="156" r="4" fill="#FFA500" stroke="#FFA500" stroke-width="0" class="arrow eRelation"></circle><text transform="matrix(0,-1,1,0,81,393)" style="text-anchor: middle; font: normal normal 200 14px/normal Arial;" x="237" y="156" text-anchor="middle" font="10px &quot;Arial&quot;" stroke="#FFA500" fill="#FFA500" stroke-width="0" font-size="14px" font-weight="200" class="arrowHead eRelation"><tspan dy="5.088461538461539">▼</tspan></text><path transform="matrix(1,0,0,1,0,0)" fill="none" stroke="red" d="M449,156L366,156" stroke-width="2.2" arrow-end="none" arrow-start="none"></path><circle transform="matrix(1,0,0,1,0,0)" cx="445" cy="156" r="4" fill="red" stroke="red" stroke-width="0" class="arrow eRelation"></circle><text transform="matrix(0,1,-1,0,536,-224)" style="text-anchor: middle; font: normal normal 200 14px/normal Arial;" x="380" y="156" text-anchor="middle" font="10px &quot;Arial&quot;" stroke="red" fill="red" stroke-width="0" font-size="14px" font-weight="200" class="arrowHead eRelation"><tspan dy="5.088461538461539">▼</tspan></text><text transform="matrix(1,0,0,1,0,0)" style="text-anchor: middle; font: normal normal 200 14px/normal Arial;" x="370" y="156" text-anchor="middle" font="10px &quot;Arial&quot;" stroke="red" fill="red" stroke-width="0" font-size="14px" font-weight="200" class="arrowExtension eRelation"><tspan dy="5.088461538461539">%</tspan></text></svg>