<svg xmlns="http://www.w3.org/2000/svg" xmlns:xlink="http://www.w3.org/1999/xlink" width="575" version="1.1" height="300" viewBox="-5 -20 585 310"><path transform="matrix(1,0,0,1,50,0)" fill="#f9f7ed" stroke="#cccccc" d="M0,10Q0,0,10,0L105,0Q115,0,115,10L115,20Q115,20,115,20L0,20Q0,20,0,20Z" stroke-width="3"></path><path transform="matrix(1,0,0,1,50,20)" fill="#f9f7ed" stroke="#cccccc" d="M0,0Q0,0,0,0L115,0Q115,0,115,0L115,95Q115,105,105,105L10,105Q0,105,0,95Z" stroke-width="3"></path><text transform="matrix(1,0,0,1,0,0)" style="text-anchor: middle; font: normal normal 700 12px/normal Arial;" x="107.5" y="10" text-anchor="middle" font="10px &quot;Arial&quot;" stroke="none" fill="#000000" font-size="12px" font-weight="700" stroke-width="0"><tspan dy="4.361538461538462"></tspan></text><text transform="matrix(1,0,0,1,0,0)" style="text-anchor: middle; font: normal normal 200 12px/normal Arial;" x="107.5" y="66.5" text-anchor="middle" font="10px &quot;Arial&quot;" stroke="none" fill="#000000" font-size="12px" font-weight="200" stroke-width="0"><tspan dy="4.361538461538462">CB_Pause</tspan></text><text transform="matrix(1,0,0,1,0,0)" style="text-anchor: middle; font: italic normal normal 12px/normal Arial;" x="107.5" y="99" text-anchor="middle" font="10px &quot;Arial&quot;" stroke="none" fill="#9E9E9E" font-size="12px" font-weight="normal" font-style="italic" stroke-width="1"><tspan dy="4.361538461538462"></tspan></text><text transform="matrix(1,0,0,1,0,0)" style="text-anchor: middle; font: normal normal 700 12px/normal Arial;" x="107.5" y="135" text-anchor="middle" font="10px &quot;Arial&quot;" stroke="none" fill="#000000" font-size="12px" font-weight="700" stroke-width="0"><tspan dy="4.361538461538462"></tspan></text><path transform="matrix(1,0,0,1,450,0)" fill="#f9f7ed" stroke="#cccccc" d="M0,10Q0,0,10,0L105,0Q115,0,115,10L115,20Q115,20,115,20L0,20Q0,20,0,20Z" stroke-width="3" stroke-dasharray="13,3"></path><path transform="matrix(1,0,0,1,450,20)" fill="#f9f7ed" stroke="#cccccc" d="M0,0Q0,0,0,0L115,0Q115,0,115,0L115,95Q115,105,105,105L10,105Q0,105,0,95Z" stroke-width="3" stroke-dasharray="13,3"></path><text transform="matrix(1,0,0,1,0,0)" style="text-anchor: middle; font: normal normal 700 12px/normal Arial;" x="507.5" y="10" text-anchor="middle" font="10px &quot;Arial&quot;" stroke="none" fill="#000000" font-size="12px" font-weight="700" stroke-width="0"><tspan dy="4.361538461538462"></tspan></text><text transform="matrix(1,0,0,1,0,0)" style="text-anchor: middle; font: normal normal 200 12px/normal Arial;" x="507.5" y="66.5" text-anchor="middle" font="10px &quot;Arial&quot;" stroke="none" fill="#000000" font-size="12px" font-weight="200" stroke-width="0"><tspan dy="4.361538461538462">CB_Unpause</tspan></text><text transform="matrix(1,0,0,1,0,0)" style="text-anchor: middle; font: italic normal normal 12px/normal Arial;" x="507.5" y="99" text-anchor="middle" font="10px &quot;Arial&quot;" stroke="none" fill="#9E9E9E" font-size="12px" font-weight="normal" font-style="italic" stroke-width="1"><tspan dy="4.361538461538462"></tspan></text><text transform="matrix(1,0,0,1,0,0)" style="text-anchor: middle; font: normal normal 700 12px/normal Arial;" x="507.5" y="135" text-anchor="middle" font="10px &quot;Arial&quot;" stroke="none" fill="#000000" font-size="12px" font-weight="700" stroke-width="0"><tspan dy="4.361538461538462"></tspan></text><path transform="matrix(1,0,0,1,250,150)" fill="#f9f7ed" stroke="#cccccc" d="M0,10Q0,0,10,0L105,0Q115,0,115,10L115,20Q115,20,115,20L0,20Q0,20,0,20Z" stroke-width="3"></path><path transform="matrix(1,0,0,1,250,170)" fill="#f9f7ed" stroke="#cccccc" d="M0,0Q0,0,0,0L115,0Q115,0,115,0L115,95Q115,105,105,105L10,105Q0,105,0,95Z" stroke-width="3"></path><text transform="matrix(1,0,0,1,0,0)" style="text-anchor: middle; font: normal normal 700 12px/normal Arial;" x="307.5" y="160" text-anchor="middle" font="10px &quot;Arial&quot;" stroke="none" fill="#000000" font-size="12px" font-weight="700" stroke-width="0"><tspan dy="4.361538461538462"></tspan></text><text transform="matrix(1,0,0,1,0,0)" style="text-anchor: middle; font: normal normal 200 12px/normal Arial;" x="307.5" y="216.5" text-anchor="middle" font="10px &quot;Arial&quot;" stroke="none" fill="#000000" font-size="12px" font-weight="200" stroke-width="0"><tspan dy="4.361538461538462">CB_OperationalCall</tspan></text><text transform="matrix(1,0,0,1,0,0)" style="text-anchor: middle; font: italic normal normal 12px/normal Arial;" x="307.5" y="249" text-anchor="middle" font="10px &quot;Arial&quot;" stroke="none" fill="#9E9E9E" font-size="12px" font-weight="normal" font-style="italic" stroke-width="1"><tspan dy="4.361538461538462"></tspan></text><text transform="matrix(1,0,0,1,0,0)" style="text-anchor: middle; font: normal normal 700 12px/normal Arial;" x="307.5" y="285" text-anchor="middle" font="10px &quot;Arial&quot;" stroke="none" fill="#000000" font-size="12px" font-weight="700" stroke-width="0"><tspan dy="4.361538461538462"></tspan></text><path transform="matrix(1,0,0,1,0,0)" fill="none" stroke="#29A81A" d="M166,56L449,56" stroke-width="2.2" arrow-end="none" arrow-start="none"></path><circle transform="matrix(1,0,0,1,0,0)" cx="170" cy="56" r="4" fill="#29A81A" stroke="#29A81A" stroke-width="0" class="arrow eRelation"></circle><text transform="matrix(0,-1,1,0,379,491)" style="text-anchor: middle; font: normal normal 200 14px/normal Arial;" x="435" y="56" text-anchor="middle" font="10px &quot;Arial&quot;" stroke="#29A81A" fill="#29A81A" stroke-width="0" font-size="14px" font-weight="200" class="arrowHead eRelation"><tspan dy="5.088461538461539">▼</tspan></text><text transform="matrix(1,0,0,1,0,0)" style="text-anchor: middle; font: normal normal normal 22px/normal Arial;" x="445" y="56" text-anchor="middle" font="10px &quot;Arial&quot;" stroke="#29A81A" fill="#29A81A" stroke-width="0" font-size="22px" class="arrowExtension eRelation"><tspan dy="7.996153846153847">+</tspan></text><path transform="matrix(1,0,0,1,0,0)" fill="none" stroke="#29A81A" d="M449,122.25L365,150" stroke-width="2.2" arrow-end="none" arrow-start="none"></path><circle transform="matrix(1,0,0,1,0,0)" cx="445.2018892748972" cy="123.50473300740003" r="4" fill="#29A81A" stroke="#29A81A" stroke-width="0" class="arrow eRelation"></circle><text transform="matrix(0.3256,0.9455,-0.9455,0.3256,392.8086,-259.4805)" style="text-anchor: middle; font: normal normal 200 14px/normal Arial;" x="378.29338753785976" y="145.60843447409988" text-anchor="middle" font="10px &quot;Arial&quot;" stroke="#29A81A" fill="#29A81A" stroke-width="0" font-size="14px" font-weight="200" class="arrowHead eRelation"><tspan dy="5.088461538461539">▼</tspan></text><text transform="matrix(1,0,0,1,0,0)" style="text-anchor: middle; font: normal normal normal 22px/normal Arial;" x="368.7981107251028" y="148.74526699259997" text-anchor="middle" font="10px &quot;Arial&quot;" stroke="#29A81A" fill="#29A81A" stroke-width="0" font-size="22px" class="arrowExtension eRelation"><tspan dy="7.996153846153847">+</tspan></text><path transform="matrix(1,0,0,1,0,0)" fill="none" stroke="#29A81A" d="M449,69.25L166,69.25" stroke-width="2.2" arrow-end="none" arrow-start="none"></path><circle transform="matrix(1,0,0,1,0,0)" cx="445" cy="69.25" r="4" fill="#29A81A" stroke="#29A81A" stroke-width="0" class="arrow eRelation"></circle><text transform="matrix(0,1,-1,0,249.25,-110.75)" style="text-anchor: middle; font: normal normal 200 14px/normal Arial;" x="180" y="69.25" text-anchor="middle" font="10px &quot;Arial&quot;" stroke="#29A81A" fill="#29A81A" stroke-width="0" font-size="14px" font-weight="200" class="arrowHead eRelation"><tspan dy="5.088461538461539">▼</tspan></text><text transform="matrix(1,0,0,1,0,0)" style="text-anchor: middle; font: normal normal normal 22px/normal Arial;" x="170" y="69.25" text-anchor="middle" font="10px &quot;Arial&quot;" stroke="#29A81A" fill="#29A81A" stroke-width="0" font-size="22px" class="arrowExtension eRelation"><tspan dy="7.996153846153847">+</tspan></text><path transform="matrix(1,0,0,1,0,0)" fill="none" stroke="red" d="M166,122.25L250,150" stroke-width="2.2" arrow-end="none" arrow-start="none"></path><circle transform="matrix(1,0,0,1,0,0)" cx="169.7981107251028" cy="123.50473300740003" r="4" fill="red" stroke="red" stroke-width="0" class="arrow eRelation"></circle><text transform="matrix(0.3256,-0.9455,0.9455,0.3256,21.967,322.0135)" style="text-anchor: middle; font: normal normal 200 14px/normal Arial;" x="236.7066124621402" y="145.60843447409988" text-anchor="middle" font="10px &quot;Arial&quot;" stroke="red" fill="red" stroke-width="0" font-size="14px" font-weight="200" class="arrowHead eRelation"><tspan dy="5.088461538461539">▼</tspan></text><text transform="matrix(1,0,0,1,0,0)" style="text-anchor: middle; font: normal normal 200 14px/normal Arial;" x="246.2018892748972" y="148.74526699259997" text-anchor="middle" font="10px &quot;Arial&quot;" stroke="red" fill="red" stroke-width="0" font-size="14px" font-weight="200" class="arrowExtension eRelation"><tspan dy="5.088461538461539">%</tspan></text><path transform="matrix(1,0,0,1,0,0)" fill="none" stroke="red" d="M59,0C39,-20,30,-20,50,0" stroke-width="2.2" arrow-end="none" arrow-start="none"></path><circle transform="matrix(1,0,0,1,0,0)" cx="59" cy="0" r="4" fill="red" stroke="red" stroke-width="0" class="arrow eRelation"></circle><text transform="matrix(0.7071,-0.7071,0.7071,0.7071,16.402,31.1127)" style="text-anchor: middle; font: normal normal 200 14px/normal Arial;" x="45.757359312880716" y="-4.242640687119285" text-anchor="middle" font="10px &quot;Arial&quot;" stroke="red" fill="red" stroke-width="0" font-size="14px" font-weight="200" class="arrowHead eRelation"><tspan dy="5.088461538461539">▼</tspan></text><text transform="matrix(1,0,0,1,0,0)" style="text-anchor: middle; font: normal normal 200 14px/normal Arial;" x="50" y="0" text-anchor="middle" font="10px &quot;Arial&quot;" stroke="red" fill="red" stroke-width="0" font-size="14px" font-weight="200" class="arrowExtension eRelation"><tspan dy="5.088461538461539">%</tspan></text><path transform="matrix(1,0,0,1,0,0)" fill="none" stroke="red" d="M459,0C439,-20,430,-20,450,0" stroke-width="2.2" arrow-end="none" arrow-start="none"></path><circle transform="matrix(1,0,0,1,0,0)" cx="459" cy="0" r="4" fill="red" stroke="red" stroke-width="0" class="arrow eRelation"></circle><text transform="matrix(0.7071,-0.7071,0.7071,0.7071,133.5593,313.9554)" style="text-anchor: middle; font: normal normal 200 14px/normal Arial;" x="445.75735931288074" y="-4.242640687119285" text-anchor="middle" font="10px &quot;Arial&quot;" stroke="red" fill="red" stroke-width="0" font-size="14px" font-weight="200" class="arrowHead eRelation"><tspan dy="5.088461538461539">▼</tspan></text><text transform="matrix(1,0,0,1,0,0)" style="text-anchor: middle; font: normal normal 200 14px/normal Arial;" x="450" y="0" text-anchor="middle" font="10px &quot;Arial&quot;" stroke="red" fill="red" stroke-width="0" font-size="14px" font-weight="200" class="arrowExtension eRelation"><tspan dy="5.088461538461539">%</tspan></text></svg>