<svg xmlns="http://www.w3.org/2000/svg" xmlns:xlink="http://www.w3.org/1999/xlink" width="375" version="1.1" height="185" viewBox="-5 -5 385 195"><path transform="matrix(1,0,0,1,50,50)" fill="#f9f7ed" stroke="#cccccc" d="M0,10Q0,0,10,0L105,0Q115,0,115,10L115,20Q115,20,115,20L0,20Q0,20,0,20Z" stroke-width="3"></path><path transform="matrix(1,0,0,1,50,70)" fill="#f9f7ed" stroke="#cccccc" d="M0,0Q0,0,0,0L115,0Q115,0,115,0L115,95Q115,105,105,105L10,105Q0,105,0,95Z" stroke-width="3"></path><text transform="matrix(1,0,0,1,0,0)" style="text-anchor: middle; font: normal normal 700 12px/normal Arial;" x="107.5" y="60" text-anchor="middle" font="10px &quot;Arial&quot;" stroke="none" fill="#000000" font-size="12px" font-weight="700" stroke-width="0"><tspan dy="4.361538461538462"></tspan></text><text transform="matrix(1,0,0,1,0,0)" style="text-anchor: middle; font: normal normal 200 12px/normal Arial;" x="107.5" y="116.5" text-anchor="middle" font="10px &quot;Arial&quot;" stroke="none" fill="#000000" font-size="12px" font-weight="200" stroke-width="0"><tspan dy="4.361538461538462">ES_Authorize</tspan></text><text transform="matrix(1,0,0,1,0,0)" style="text-anchor: middle; font: italic normal normal 12px/normal Arial;" x="107.5" y="149" text-anchor="middle" font="10px &quot;Arial&quot;" stroke="none" fill="#9E9E9E" font-size="12px" font-weight="normal" font-style="italic" stroke-width="1"><tspan dy="4.361538461538462"></tspan></text><text transform="matrix(1,0,0,1,0,0)" style="text-anchor: middle; font: normal normal 700 12px/normal Arial;" x="107.5" y="185" text-anchor="middle" font="10px &quot;Arial&quot;" stroke="none" fill="#000000" font-size="12px" font-weight="700" stroke-width="0"><tspan dy="4.361538461538462"></tspan></text><path transform="matrix(1,0,0,1,250,50)" fill="#f9f7ed" stroke="#cccccc" d="M0,10Q0,0,10,0L105,0Q115,0,115,10L115,20Q115,20,115,20L0,20Q0,20,0,20Z" stroke-width="3"></path><path transform="matrix(1,0,0,1,250,70)" fill="#f9f7ed" stroke="#cccccc" d="M0,0Q0,0,0,0L115,0Q115,0,115,0L115,95Q115,105,105,105L10,105Q0,105,0,95Z" stroke-width="3"></path><text transform="matrix(1,0,0,1,0,0)" style="text-anchor: middle; font: normal normal 700 12px/normal Arial;" x="307.5" y="60" text-anchor="middle" font="10px &quot;Arial&quot;" stroke="none" fill="#000000" font-size="12px" font-weight="700" stroke-width="0"><tspan dy="4.361538461538462"></tspan></text><text transform="matrix(1,0,0,1,0,0)" style="text-anchor: middle; font: normal normal 200 12px/normal Arial;" x="307.5" y="116.5" text-anchor="middle" font="10px &quot;Arial&quot;" stroke="none" fill="#000000" font-size="12px" font-weight="200" stroke-width="0"><tspan dy="4.361538461538462">ES_Escape</tspan></text><text transform="matrix(1,0,0,1,0,0)" style="text-anchor: middle; font: italic normal normal 12px/normal Arial;" x="307.5" y="149" text-anchor="middle" font="10px &quot;Arial&quot;" stroke="none" fill="#9E9E9E" font-size="12px" font-weight="normal" font-style="italic" stroke-width="1"><tspan dy="4.361538461538462"></tspan></text><text transform="matrix(1,0,0,1,0,0)" style="text-anchor: middle; font: normal normal 700 12px/normal Arial;" x="307.5" y="185" text-anchor="middle" font="10px &quot;Arial&quot;" stroke="none" fill="#000000" font-size="12px" font-weight="700" stroke-width="0"><tspan dy="4.361538461538462"></tspan></text><path transform="matrix(1,0,0,1,0,0)" fill="none" stroke="#FFA500" d="M166,106L249,106" stroke-width="2.2" arrow-end="none" arrow-start="none"></path><circle transform="matrix(1,0,0,1,0,0)" cx="245" cy="106" r="4" fill="#FFA500" stroke="#FFA500" stroke-width="0" class="arrow eRelation"></circle><text transform="matrix(0,-1,1,0,131,343)" style="text-anchor: middle; font: normal normal 200 14px/normal Arial;" x="237" y="106" text-anchor="middle" font="10px &quot;Arial&quot;" stroke="#FFA500" fill="#FFA500" stroke-width="0" font-size="14px" font-weight="200" class="arrowHead eRelation"><tspan dy="5.088461538461539">▼</tspan></text></svg>