<svg xmlns="http://www.w3.org/2000/svg" xmlns:xlink="http://www.w3.org/1999/xlink" width="675" version="1.1" height="585" viewBox="-5 -5 685 595"><path transform="matrix(1,0,0,1,150,250)" fill="#f9f7ed" stroke="#cccccc" d="M0,10Q0,0,10,0L105,0Q115,0,115,10L115,20Q115,20,115,20L0,20Q0,20,0,20Z" stroke-width="3"></path><path transform="matrix(1,0,0,1,150,270)" fill="#f9f7ed" stroke="#cccccc" d="M0,0Q0,0,0,0L115,0Q115,0,115,0L115,95Q115,105,105,105L10,105Q0,105,0,95Z" stroke-width="3"></path><text transform="matrix(1,0,0,1,0,0)" style="text-anchor: middle; font: normal normal 700 12px/normal Arial;" x="207.5" y="260" text-anchor="middle" font="10px &quot;Arial&quot;" stroke="none" fill="#000000" font-size="12px" font-weight="700" stroke-width="0"><tspan dy="4.361538461538462"></tspan></text><text transform="matrix(1,0,0,1,0,0)" style="text-anchor: middle; font: normal normal 200 12px/normal Arial;" x="207.5" y="316.5" text-anchor="middle" font="10px &quot;Arial&quot;" stroke="none" fill="#000000" font-size="12px" font-weight="200" stroke-width="0"><tspan dy="4.361538461538462">TI_Start</tspan></text><text transform="matrix(1,0,0,1,0,0)" style="text-anchor: middle; font: italic normal normal 12px/normal Arial;" x="207.5" y="349" text-anchor="middle" font="10px &quot;Arial&quot;" stroke="none" fill="#9E9E9E" font-size="12px" font-weight="normal" font-style="italic" stroke-width="1"><tspan dy="4.361538461538462"></tspan></text><text transform="matrix(1,0,0,1,0,0)" style="text-anchor: middle; font: normal normal 700 12px/normal Arial;" x="207.5" y="385" text-anchor="middle" font="10px &quot;Arial&quot;" stroke="none" fill="#000000" font-size="12px" font-weight="700" stroke-width="0"><tspan dy="4.361538461538462"></tspan></text><path transform="matrix(1,0,0,1,350,450)" fill="#f9f7ed" stroke="#cccccc" d="M0,10Q0,0,10,0L105,0Q115,0,115,10L115,20Q115,20,115,20L0,20Q0,20,0,20Z" stroke-width="3" stroke-dasharray="13,3"></path><path transform="matrix(1,0,0,1,350,470)" fill="#f9f7ed" stroke="#cccccc" d="M0,0Q0,0,0,0L115,0Q115,0,115,0L115,95Q115,105,105,105L10,105Q0,105,0,95Z" stroke-width="3" stroke-dasharray="13,3"></path><text transform="matrix(1,0,0,1,0,0)" style="text-anchor: middle; font: normal normal 700 12px/normal Arial;" x="407.5" y="460" text-anchor="middle" font="10px &quot;Arial&quot;" stroke="none" fill="#000000" font-size="12px" font-weight="700" stroke-width="0"><tspan dy="4.361538461538462"></tspan></text><text transform="matrix(1,0,0,1,0,0)" style="text-anchor: middle; font: normal normal 200 12px/normal Arial;" x="407.5" y="516.5" text-anchor="middle" font="10px &quot;Arial&quot;" stroke="none" fill="#000000" font-size="12px" font-weight="200" stroke-width="0"><tspan dy="4.361538461538462">TI_Timeout</tspan></text><text transform="matrix(1,0,0,1,0,0)" style="text-anchor: middle; font: italic normal normal 12px/normal Arial;" x="407.5" y="549" text-anchor="middle" font="10px &quot;Arial&quot;" stroke="none" fill="#9E9E9E" font-size="12px" font-weight="normal" font-style="italic" stroke-width="1"><tspan dy="4.361538461538462"></tspan></text><text transform="matrix(1,0,0,1,0,0)" style="text-anchor: middle; font: normal normal 700 12px/normal Arial;" x="407.5" y="585" text-anchor="middle" font="10px &quot;Arial&quot;" stroke="none" fill="#000000" font-size="12px" font-weight="700" stroke-width="0"><tspan dy="4.361538461538462"></tspan></text><path transform="matrix(1,0,0,1,350,250)" fill="#f9f7ed" stroke="#cccccc" d="M0,10Q0,0,10,0L105,0Q115,0,115,10L115,20Q115,20,115,20L0,20Q0,20,0,20Z" stroke-width="3" stroke-dasharray="13,3"></path><path transform="matrix(1,0,0,1,350,270)" fill="#f9f7ed" stroke="#cccccc" d="M0,0Q0,0,0,0L115,0Q115,0,115,0L115,95Q115,105,105,105L10,105Q0,105,0,95Z" stroke-width="3" stroke-dasharray="13,3"></path><text transform="matrix(1,0,0,1,0,0)" style="text-anchor: middle; font: normal normal 700 12px/normal Arial;" x="407.5" y="260" text-anchor="middle" font="10px &quot;Arial&quot;" stroke="none" fill="#000000" font-size="12px" font-weight="700" stroke-width="0"><tspan dy="4.361538461538462"></tspan></text><text transform="matrix(1,0,0,1,0,0)" style="text-anchor: middle; font: normal normal 200 12px/normal Arial;" x="407.5" y="316.5" text-anchor="middle" font="10px &quot;Arial&quot;" stroke="none" fill="#000000" font-size="12px" font-weight="200" stroke-width="0"><tspan dy="4.361538461538462">TI_Proceed</tspan></text><text transform="matrix(1,0,0,1,0,0)" style="text-anchor: middle; font: italic normal normal 12px/normal Arial;" x="407.5" y="349" text-anchor="middle" font="10px &quot;Arial&quot;" stroke="none" fill="#9E9E9E" font-size="12px" font-weight="normal" font-style="italic" stroke-width="1"><tspan dy="4.361538461538462"></tspan></text><text transform="matrix(1,0,0,1,0,0)" style="text-anchor: middle; font: normal normal 700 12px/normal Arial;" x="407.5" y="385" text-anchor="middle" font="10px &quot;Arial&quot;" stroke="none" fill="#000000" font-size="12px" font-weight="700" stroke-width="0"><tspan dy="4.361538461538462"></tspan></text><path transform="matrix(1,0,0,1,550,250)" fill="#f9f7ed" stroke="#cccccc" d="M0,10Q0,0,10,0L105,0Q115,0,115,10L115,20Q115,20,115,20L0,20Q0,20,0,20Z" stroke-width="3" stroke-dasharray="13,3"></path><path transform="matrix(1,0,0,1,550,270)" fill="#f9f7ed" stroke="#cccccc" d="M0,0Q0,0,0,0L115,0Q115,0,115,0L115,95Q115,105,105,105L10,105Q0,105,0,95Z" stroke-width="3" stroke-dasharray="13,3"></path><text transform="matrix(1,0,0,1,0,0)" style="text-anchor: middle; font: normal normal 700 12px/normal Arial;" x="607.5" y="260" text-anchor="middle" font="10px &quot;Arial&quot;" stroke="none" fill="#000000" font-size="12px" font-weight="700" stroke-width="0"><tspan dy="4.361538461538462"></tspan></text><text transform="matrix(1,0,0,1,0,0)" style="text-anchor: middle; font: normal normal 200 12px/normal Arial;" x="607.5" y="316.5" text-anchor="middle" font="10px &quot;Arial&quot;" stroke="none" fill="#000000" font-size="12px" font-weight="200" stroke-width="0"><tspan dy="4.361538461538462">TI_Penalize</tspan></text><text transform="matrix(1,0,0,1,0,0)" style="text-anchor: middle; font: italic normal normal 12px/normal Arial;" x="607.5" y="349" text-anchor="middle" font="10px &quot;Arial&quot;" stroke="none" fill="#9E9E9E" font-size="12px" font-weight="normal" font-style="italic" stroke-width="1"><tspan dy="4.361538461538462"></tspan></text><text transform="matrix(1,0,0,1,0,0)" style="text-anchor: middle; font: normal normal 700 12px/normal Arial;" x="607.5" y="385" text-anchor="middle" font="10px &quot;Arial&quot;" stroke="none" fill="#000000" font-size="12px" font-weight="700" stroke-width="0"><tspan dy="4.361538461538462"></tspan></text><path transform="matrix(1,0,0,1,0,0)" fill="none" stroke="#FFA500" d="M266,306L349,306" stroke-width="2.2" arrow-end="none" arrow-start="none"></path><circle transform="matrix(1,0,0,1,0,0)" cx="345" cy="306" r="4" fill="#FFA500" stroke="#FFA500" stroke-width="0" class="arrow eRelation"></circle><text transform="matrix(0,-1,1,0,31,643)" style="text-anchor: middle; font: normal normal 200 14px/normal Arial;" x="337" y="306" text-anchor="middle" font="10px &quot;Arial&quot;" stroke="#FFA500" fill="#FFA500" stroke-width="0" font-size="14px" font-weight="200" class="arrowHead eRelation"><tspan dy="5.088461538461539">▼</tspan></text><path transform="matrix(1,0,0,1,0,0)" fill="none" stroke="#1E90FF" d="M266,319.25L349,319.25" stroke-width="2.2" arrow-end="none" arrow-start="none"></path><circle transform="matrix(1,0,0,1,0,0)" cx="270" cy="319.25" r="4" fill="#1E90FF" stroke="#1E90FF" stroke-width="0" class="arrow eRelation"></circle><text transform="matrix(0,-1,1,0,25.75,664.25)" style="text-anchor: middle; font: normal normal 200 14px/normal Arial;" x="345" y="319.25" text-anchor="middle" font="10px &quot;Arial&quot;" stroke="#1E90FF" fill="#1E90FF" stroke-width="0" font-size="14px" font-weight="200" class="arrowHead eRelation"><tspan dy="5.088461538461539">▼</tspan></text><path transform="matrix(1,0,0,1,0,0)" fill="none" stroke="#1E90FF" d="M465,450L550,375" stroke-width="2.2" arrow-end="none" arrow-start="none"></path><circle transform="matrix(1,0,0,1,0,0)" cx="467.99935142146035" cy="447.3535134516526" r="4" fill="#1E90FF" stroke="#1E90FF" stroke-width="0" class="arrow eRelation"></circle><text transform="matrix(-0.6561,-0.7547,0.7547,-0.6561,620.852,1038.2315)" style="text-anchor: middle; font: normal normal 200 14px/normal Arial;" x="547.0006485785397" y="377.6464865483474" text-anchor="middle" font="10px &quot;Arial&quot;" stroke="#1E90FF" fill="#1E90FF" stroke-width="0" font-size="14px" font-weight="200" class="arrowHead eRelation"><tspan dy="5.088461538461539">▼</tspan></text><path transform="matrix(1,0,0,1,0,0)" fill="none" stroke="#29A81A" d="M266,292.75L349,292.75" stroke-width="2.2" arrow-end="none" arrow-start="none"></path><circle transform="matrix(1,0,0,1,0,0)" cx="270" cy="292.75" r="4" fill="#29A81A" stroke="#29A81A" stroke-width="0" class="arrow eRelation"></circle><text transform="matrix(0,-1,1,0,42.25,627.75)" style="text-anchor: middle; font: normal normal 200 14px/normal Arial;" x="335" y="292.75" text-anchor="middle" font="10px &quot;Arial&quot;" stroke="#29A81A" fill="#29A81A" stroke-width="0" font-size="14px" font-weight="200" class="arrowHead eRelation"><tspan dy="5.088461538461539">▼</tspan></text><text transform="matrix(1,0,0,1,0,0)" style="text-anchor: middle; font: normal normal normal 22px/normal Arial;" x="345" y="292.75" text-anchor="middle" font="10px &quot;Arial&quot;" stroke="#29A81A" fill="#29A81A" stroke-width="0" font-size="22px" class="arrowExtension eRelation"><tspan dy="7.996153846153847">+</tspan></text><path transform="matrix(1,0,0,1,0,0)" fill="none" stroke="#29A81A" d="M265,375L350,450" stroke-width="2.2" arrow-end="none" arrow-start="none"></path><circle transform="matrix(1,0,0,1,0,0)" cx="267.99935142146035" cy="377.6464865483474" r="4" fill="#29A81A" stroke="#29A81A" stroke-width="0" class="arrow eRelation"></circle><text transform="matrix(0.6691,-0.7431,0.7431,0.6691,-215.2007,398.1258)" style="text-anchor: middle; font: normal normal 200 14px/normal Arial;" x="339.50227002488873" y="440.7372970807842" text-anchor="middle" font="10px &quot;Arial&quot;" stroke="#29A81A" fill="#29A81A" stroke-width="0" font-size="14px" font-weight="200" class="arrowHead eRelation"><tspan dy="5.088461538461539">▼</tspan></text><text transform="matrix(1,0,0,1,0,0)" style="text-anchor: middle; font: normal normal normal 22px/normal Arial;" x="347.00064857853965" y="447.3535134516526" text-anchor="middle" font="10px &quot;Arial&quot;" stroke="#29A81A" fill="#29A81A" stroke-width="0" font-size="22px" class="arrowExtension eRelation"><tspan dy="7.996153846153847">+</tspan></text><path transform="matrix(1,0,0,1,0,0)" fill="none" stroke="red" d="M403,376L403,450" stroke-width="2.2" arrow-end="none" arrow-start="none"></path><circle transform="matrix(1,0,0,1,0,0)" cx="403" cy="380" r="4" fill="red" stroke="red" stroke-width="0" class="arrow eRelation"></circle><text transform="matrix(1,0,0,1,0,0)" style="text-anchor: middle; font: normal normal 200 14px/normal Arial;" x="403" y="436" text-anchor="middle" font="10px &quot;Arial&quot;" stroke="red" fill="red" stroke-width="0" font-size="14px" font-weight="200" class="arrowHead eRelation"><tspan dy="5.088461538461539">▼</tspan></text><text transform="matrix(1,0,0,1,0,0)" style="text-anchor: middle; font: normal normal 200 14px/normal Arial;" x="403" y="446" text-anchor="middle" font="10px &quot;Arial&quot;" stroke="red" fill="red" stroke-width="0" font-size="14px" font-weight="200" class="arrowExtension eRelation"><tspan dy="5.088461538461539">%</tspan></text></svg>